<mxfile host="app.diagrams.net" modified="2023-05-14T13:46:10.330Z" agent="Mozilla/5.0 (X11; Linux x86_64) AppleWebKit/537.36 (KHTML, like Gecko) Chrome/112.0.0.0 Safari/537.36 OPR/98.0.0.0" etag="R6-XhoY7BBPUEnlEaYos" version="21.3.0" type="device" pages="2">
  <diagram id="R2lEEEUBdFMjLlhIrx00" name="Page-1">
    <mxGraphModel dx="1320" dy="779" grid="1" gridSize="10" guides="1" tooltips="1" connect="1" arrows="1" fold="1" page="1" pageScale="1" pageWidth="1100" pageHeight="850" math="0" shadow="0" extFonts="Permanent Marker^https://fonts.googleapis.com/css?family=Permanent+Marker">
      <root>
        <mxCell id="0" />
        <mxCell id="1" parent="0" />
        <mxCell id="J_76UupeG6wCFxkrGrsA-9" style="edgeStyle=orthogonalEdgeStyle;rounded=0;orthogonalLoop=1;jettySize=auto;html=1;" parent="1" source="WEN4GhjOL043aAa4Vbo3-2" target="WEN4GhjOL043aAa4Vbo3-5" edge="1">
          <mxGeometry relative="1" as="geometry">
            <Array as="points">
              <mxPoint x="940" y="800" />
              <mxPoint x="490" y="800" />
            </Array>
          </mxGeometry>
        </mxCell>
        <mxCell id="2pHAMFMVJt9wwg3rpD-7-31" style="edgeStyle=orthogonalEdgeStyle;rounded=0;orthogonalLoop=1;jettySize=auto;html=1;entryX=1;entryY=0.5;entryDx=0;entryDy=0;" parent="1" source="WEN4GhjOL043aAa4Vbo3-2" target="I5R2w2ZqIjQvtkFh19IB-11" edge="1">
          <mxGeometry relative="1" as="geometry" />
        </mxCell>
        <mxCell id="2pHAMFMVJt9wwg3rpD-7-35" style="edgeStyle=orthogonalEdgeStyle;rounded=0;orthogonalLoop=1;jettySize=auto;html=1;exitX=0.75;exitY=1;exitDx=0;exitDy=0;" parent="1" source="WEN4GhjOL043aAa4Vbo3-2" target="2pHAMFMVJt9wwg3rpD-7-24" edge="1">
          <mxGeometry relative="1" as="geometry">
            <mxPoint x="1010" y="1090" as="targetPoint" />
            <Array as="points">
              <mxPoint x="998" y="1330" />
            </Array>
          </mxGeometry>
        </mxCell>
        <mxCell id="WEN4GhjOL043aAa4Vbo3-2" value="Class StringParser&lt;br&gt;&lt;br&gt;&quot;Uses&amp;nbsp;Shunting-Yard algorithm for converting strings to mathematical/ date/time/boolean expressions&quot;&lt;br&gt;&lt;br&gt;parse(string input)&lt;br&gt;&lt;br&gt;scoopCellReferences(string input)&lt;br&gt;&lt;br&gt;Attributes:&lt;br&gt;stack&amp;lt;Operator&amp;gt; tokens&lt;br&gt;queue&amp;lt;CellDataType&amp;gt;&lt;br&gt;" style="rounded=1;whiteSpace=wrap;html=1;" parent="1" vertex="1">
          <mxGeometry x="780" y="370" width="290" height="240" as="geometry" />
        </mxCell>
        <mxCell id="I5R2w2ZqIjQvtkFh19IB-2" style="edgeStyle=orthogonalEdgeStyle;rounded=0;orthogonalLoop=1;jettySize=auto;html=1;entryX=0.5;entryY=0;entryDx=0;entryDy=0;" parent="1" source="WEN4GhjOL043aAa4Vbo3-5" target="WEN4GhjOL043aAa4Vbo3-6" edge="1">
          <mxGeometry relative="1" as="geometry">
            <Array as="points">
              <mxPoint x="285" y="1000" />
            </Array>
          </mxGeometry>
        </mxCell>
        <mxCell id="2pHAMFMVJt9wwg3rpD-7-30" style="edgeStyle=orthogonalEdgeStyle;rounded=0;orthogonalLoop=1;jettySize=auto;html=1;entryX=0.5;entryY=0;entryDx=0;entryDy=0;" parent="1" source="WEN4GhjOL043aAa4Vbo3-5" target="WEN4GhjOL043aAa4Vbo3-8" edge="1">
          <mxGeometry relative="1" as="geometry" />
        </mxCell>
        <mxCell id="WEN4GhjOL043aAa4Vbo3-5" value="Class CellDataType&amp;nbsp;&lt;br&gt;&lt;br&gt;string getRawValue()&lt;br&gt;&lt;br&gt;&lt;span style=&quot;white-space: pre;&quot;&gt; &lt;/span&gt;void clear()" style="rounded=1;whiteSpace=wrap;html=1;" parent="1" vertex="1">
          <mxGeometry x="340" y="950" width="200" height="100" as="geometry" />
        </mxCell>
        <mxCell id="WEN4GhjOL043aAa4Vbo3-6" value="class String override&lt;br&gt;&lt;br&gt;&quot;Expression that cannot be evaluated as any other data type&quot;&lt;br&gt;&lt;br&gt;string value;" style="rounded=1;whiteSpace=wrap;html=1;" parent="1" vertex="1">
          <mxGeometry x="192.5" y="1160" width="185" height="105" as="geometry" />
        </mxCell>
        <mxCell id="WEN4GhjOL043aAa4Vbo3-8" value="class Numeric override&lt;br&gt;double value;" style="rounded=1;whiteSpace=wrap;html=1;" parent="1" vertex="1">
          <mxGeometry x="547.5" y="1165" width="130" height="60" as="geometry" />
        </mxCell>
        <mxCell id="WEN4GhjOL043aAa4Vbo3-10" value="class Date override" style="rounded=1;whiteSpace=wrap;html=1;" parent="1" vertex="1">
          <mxGeometry x="355" y="2320" width="130" height="60" as="geometry" />
        </mxCell>
        <mxCell id="WEN4GhjOL043aAa4Vbo3-12" value="class Time override" style="rounded=1;whiteSpace=wrap;html=1;" parent="1" vertex="1">
          <mxGeometry x="90" y="2320" width="130" height="60" as="geometry" />
        </mxCell>
        <mxCell id="WEN4GhjOL043aAa4Vbo3-15" value="Class Boolean override" style="rounded=1;whiteSpace=wrap;html=1;" parent="1" vertex="1">
          <mxGeometry x="80" y="2420" width="150" height="60" as="geometry" />
        </mxCell>
        <mxCell id="I5R2w2ZqIjQvtkFh19IB-9" style="edgeStyle=orthogonalEdgeStyle;rounded=0;orthogonalLoop=1;jettySize=auto;html=1;" parent="1" source="I5R2w2ZqIjQvtkFh19IB-7" target="I5R2w2ZqIjQvtkFh19IB-10" edge="1">
          <mxGeometry relative="1" as="geometry">
            <mxPoint x="195" y="1810" as="targetPoint" />
          </mxGeometry>
        </mxCell>
        <mxCell id="2pHAMFMVJt9wwg3rpD-7-29" style="edgeStyle=orthogonalEdgeStyle;rounded=0;orthogonalLoop=1;jettySize=auto;html=1;entryX=0.5;entryY=0;entryDx=0;entryDy=0;" parent="1" source="I5R2w2ZqIjQvtkFh19IB-7" target="J_76UupeG6wCFxkrGrsA-2" edge="1">
          <mxGeometry relative="1" as="geometry" />
        </mxCell>
        <mxCell id="I5R2w2ZqIjQvtkFh19IB-7" value="Class Formula override" style="rounded=1;whiteSpace=wrap;html=1;" parent="1" vertex="1">
          <mxGeometry x="145" y="1670" width="190" height="60" as="geometry" />
        </mxCell>
        <mxCell id="I5R2w2ZqIjQvtkFh19IB-10" value="Class sin,cos, strip... override" style="rounded=1;whiteSpace=wrap;html=1;" parent="1" vertex="1">
          <mxGeometry x="60" y="1820" width="170" height="60" as="geometry" />
        </mxCell>
        <mxCell id="J_76UupeG6wCFxkrGrsA-6" style="edgeStyle=orthogonalEdgeStyle;rounded=0;orthogonalLoop=1;jettySize=auto;html=1;entryX=0.5;entryY=0;entryDx=0;entryDy=0;" parent="1" source="I5R2w2ZqIjQvtkFh19IB-11" target="sn9tBogoGAwXLFoN6Kv8-8" edge="1">
          <mxGeometry relative="1" as="geometry" />
        </mxCell>
        <mxCell id="I5R2w2ZqIjQvtkFh19IB-11" value="Class Spreadsheet&lt;br&gt;&lt;br&gt;&quot;Represents a table of Cells&quot;&lt;br&gt;&lt;br&gt;save(file)&lt;br&gt;print()&lt;br&gt;clear()&lt;br&gt;add(pos, value)&lt;br&gt;checkForLoops(pos)&lt;br&gt;chooseFormat(pos)&lt;br&gt;forceChangeType(pos)&lt;br&gt;&lt;br&gt;Attributes:&lt;br&gt;vector&amp;lt;vector&amp;lt;CellDataType&amp;gt;&amp;gt;" style="rounded=1;whiteSpace=wrap;html=1;" parent="1" vertex="1">
          <mxGeometry x="205" y="380" width="325" height="220" as="geometry" />
        </mxCell>
        <mxCell id="sn9tBogoGAwXLFoN6Kv8-2" style="edgeStyle=orthogonalEdgeStyle;rounded=0;orthogonalLoop=1;jettySize=auto;html=1;" parent="1" source="sn9tBogoGAwXLFoN6Kv8-1" target="sn9tBogoGAwXLFoN6Kv8-3" edge="1">
          <mxGeometry relative="1" as="geometry">
            <mxPoint x="165" y="280" as="targetPoint" />
          </mxGeometry>
        </mxCell>
        <mxCell id="sn9tBogoGAwXLFoN6Kv8-5" style="edgeStyle=orthogonalEdgeStyle;rounded=0;orthogonalLoop=1;jettySize=auto;html=1;exitX=1;exitY=1;exitDx=0;exitDy=0;" parent="1" source="sn9tBogoGAwXLFoN6Kv8-1" target="sn9tBogoGAwXLFoN6Kv8-4" edge="1">
          <mxGeometry relative="1" as="geometry" />
        </mxCell>
        <mxCell id="sn9tBogoGAwXLFoN6Kv8-7" style="edgeStyle=orthogonalEdgeStyle;rounded=0;orthogonalLoop=1;jettySize=auto;html=1;exitX=0;exitY=1;exitDx=0;exitDy=0;entryX=0.5;entryY=0;entryDx=0;entryDy=0;" parent="1" source="sn9tBogoGAwXLFoN6Kv8-1" target="sn9tBogoGAwXLFoN6Kv8-6" edge="1">
          <mxGeometry relative="1" as="geometry" />
        </mxCell>
        <mxCell id="sn9tBogoGAwXLFoN6Kv8-1" value="Class Button:&lt;br&gt;&quot;Represents a button in UI&quot;" style="rounded=1;whiteSpace=wrap;html=1;" parent="1" vertex="1">
          <mxGeometry x="80" y="90" width="170" height="100" as="geometry" />
        </mxCell>
        <mxCell id="sn9tBogoGAwXLFoN6Kv8-3" value="Exit" style="rounded=1;whiteSpace=wrap;html=1;" parent="1" vertex="1">
          <mxGeometry x="122.5" y="280" width="85" height="30" as="geometry" />
        </mxCell>
        <mxCell id="sn9tBogoGAwXLFoN6Kv8-4" value="Save" style="rounded=1;whiteSpace=wrap;html=1;" parent="1" vertex="1">
          <mxGeometry x="240" y="277.5" width="90" height="35" as="geometry" />
        </mxCell>
        <mxCell id="sn9tBogoGAwXLFoN6Kv8-6" value="Clear" style="rounded=1;whiteSpace=wrap;html=1;" parent="1" vertex="1">
          <mxGeometry x="20" y="280" width="70" height="35" as="geometry" />
        </mxCell>
        <mxCell id="2pHAMFMVJt9wwg3rpD-7-33" style="edgeStyle=orthogonalEdgeStyle;rounded=0;orthogonalLoop=1;jettySize=auto;html=1;entryX=0.345;entryY=0.02;entryDx=0;entryDy=0;entryPerimeter=0;" parent="1" source="sn9tBogoGAwXLFoN6Kv8-8" target="WEN4GhjOL043aAa4Vbo3-5" edge="1">
          <mxGeometry relative="1" as="geometry" />
        </mxCell>
        <mxCell id="sn9tBogoGAwXLFoN6Kv8-8" value="Class Cell:&lt;br&gt;Pair&amp;lt;int, int&amp;gt; position;&lt;br&gt;CellDataType value;&lt;br&gt;FormatType format;&lt;br&gt;String rawValue;" style="rounded=1;whiteSpace=wrap;html=1;" parent="1" vertex="1">
          <mxGeometry x="120" y="760" width="160" height="80" as="geometry" />
        </mxCell>
        <mxCell id="J_76UupeG6wCFxkrGrsA-2" value="CellReference override" style="rounded=1;whiteSpace=wrap;html=1;" parent="1" vertex="1">
          <mxGeometry x="280" y="1820" width="130" height="60" as="geometry" />
        </mxCell>
        <mxCell id="J_76UupeG6wCFxkrGrsA-15" style="edgeStyle=orthogonalEdgeStyle;rounded=0;orthogonalLoop=1;jettySize=auto;html=1;entryX=0.558;entryY=0.05;entryDx=0;entryDy=0;entryPerimeter=0;" parent="1" source="J_76UupeG6wCFxkrGrsA-10" target="J_76UupeG6wCFxkrGrsA-11" edge="1">
          <mxGeometry relative="1" as="geometry" />
        </mxCell>
        <mxCell id="J_76UupeG6wCFxkrGrsA-16" style="edgeStyle=orthogonalEdgeStyle;rounded=0;orthogonalLoop=1;jettySize=auto;html=1;entryX=0.5;entryY=0;entryDx=0;entryDy=0;" parent="1" source="J_76UupeG6wCFxkrGrsA-10" target="J_76UupeG6wCFxkrGrsA-12" edge="1">
          <mxGeometry relative="1" as="geometry" />
        </mxCell>
        <mxCell id="J_76UupeG6wCFxkrGrsA-17" style="edgeStyle=orthogonalEdgeStyle;rounded=0;orthogonalLoop=1;jettySize=auto;html=1;entryX=0.5;entryY=0;entryDx=0;entryDy=0;" parent="1" source="J_76UupeG6wCFxkrGrsA-10" target="J_76UupeG6wCFxkrGrsA-13" edge="1">
          <mxGeometry relative="1" as="geometry" />
        </mxCell>
        <mxCell id="J_76UupeG6wCFxkrGrsA-18" style="edgeStyle=orthogonalEdgeStyle;rounded=0;orthogonalLoop=1;jettySize=auto;html=1;entryX=0.5;entryY=0;entryDx=0;entryDy=0;" parent="1" source="J_76UupeG6wCFxkrGrsA-10" target="J_76UupeG6wCFxkrGrsA-14" edge="1">
          <mxGeometry relative="1" as="geometry" />
        </mxCell>
        <mxCell id="J_76UupeG6wCFxkrGrsA-10" value="Class BinaryOperator override&lt;br&gt;&lt;br&gt;virtual calculate(Numeric, Numeric)&lt;br&gt;virtual calculate(Number, PureString)&lt;br&gt;...." style="rounded=1;whiteSpace=wrap;html=1;" parent="1" vertex="1">
          <mxGeometry x="580" y="1530" width="280" height="200" as="geometry" />
        </mxCell>
        <mxCell id="J_76UupeG6wCFxkrGrsA-11" value="class Plus override" style="rounded=1;whiteSpace=wrap;html=1;" parent="1" vertex="1">
          <mxGeometry x="430" y="1900" width="120" height="60" as="geometry" />
        </mxCell>
        <mxCell id="J_76UupeG6wCFxkrGrsA-12" value="class Minus override" style="rounded=1;whiteSpace=wrap;html=1;" parent="1" vertex="1">
          <mxGeometry x="580" y="1900" width="120" height="60" as="geometry" />
        </mxCell>
        <mxCell id="J_76UupeG6wCFxkrGrsA-13" value="class Multiply override" style="rounded=1;whiteSpace=wrap;html=1;" parent="1" vertex="1">
          <mxGeometry x="725" y="1900" width="125" height="60" as="geometry" />
        </mxCell>
        <mxCell id="J_76UupeG6wCFxkrGrsA-14" value="class Divide override" style="rounded=1;whiteSpace=wrap;html=1;" parent="1" vertex="1">
          <mxGeometry x="890" y="1900" width="120" height="60" as="geometry" />
        </mxCell>
        <mxCell id="J_76UupeG6wCFxkrGrsA-23" style="edgeStyle=orthogonalEdgeStyle;rounded=0;orthogonalLoop=1;jettySize=auto;html=1;" parent="1" source="J_76UupeG6wCFxkrGrsA-20" target="J_76UupeG6wCFxkrGrsA-21" edge="1">
          <mxGeometry relative="1" as="geometry" />
        </mxCell>
        <mxCell id="J_76UupeG6wCFxkrGrsA-24" style="edgeStyle=orthogonalEdgeStyle;rounded=0;orthogonalLoop=1;jettySize=auto;html=1;entryX=0.5;entryY=0;entryDx=0;entryDy=0;" parent="1" source="J_76UupeG6wCFxkrGrsA-20" target="J_76UupeG6wCFxkrGrsA-22" edge="1">
          <mxGeometry relative="1" as="geometry" />
        </mxCell>
        <mxCell id="J_76UupeG6wCFxkrGrsA-20" value="Class FileHandler" style="rounded=1;whiteSpace=wrap;html=1;" parent="1" vertex="1">
          <mxGeometry x="700" y="20" width="120" height="60" as="geometry" />
        </mxCell>
        <mxCell id="J_76UupeG6wCFxkrGrsA-21" value="class CSVFileHandler override&lt;br&gt;importAsVector();&lt;br&gt;exportAsVector()" style="rounded=1;whiteSpace=wrap;html=1;" parent="1" vertex="1">
          <mxGeometry x="525" y="180" width="175" height="60" as="geometry" />
        </mxCell>
        <mxCell id="J_76UupeG6wCFxkrGrsA-22" value="class ConfigFileHandler overiide&lt;br&gt;importAsMap()" style="rounded=1;whiteSpace=wrap;html=1;" parent="1" vertex="1">
          <mxGeometry x="790" y="180" width="210" height="60" as="geometry" />
        </mxCell>
        <mxCell id="2pHAMFMVJt9wwg3rpD-7-4" style="edgeStyle=orthogonalEdgeStyle;rounded=0;orthogonalLoop=1;jettySize=auto;html=1;entryX=0.5;entryY=0;entryDx=0;entryDy=0;" parent="1" source="2pHAMFMVJt9wwg3rpD-7-1" target="WEN4GhjOL043aAa4Vbo3-12" edge="1">
          <mxGeometry relative="1" as="geometry" />
        </mxCell>
        <mxCell id="2pHAMFMVJt9wwg3rpD-7-5" style="edgeStyle=orthogonalEdgeStyle;rounded=0;orthogonalLoop=1;jettySize=auto;html=1;entryX=0.5;entryY=0;entryDx=0;entryDy=0;" parent="1" source="2pHAMFMVJt9wwg3rpD-7-1" target="WEN4GhjOL043aAa4Vbo3-10" edge="1">
          <mxGeometry relative="1" as="geometry" />
        </mxCell>
        <mxCell id="2pHAMFMVJt9wwg3rpD-7-6" style="edgeStyle=orthogonalEdgeStyle;rounded=0;orthogonalLoop=1;jettySize=auto;html=1;entryX=1;entryY=0.5;entryDx=0;entryDy=0;" parent="1" source="2pHAMFMVJt9wwg3rpD-7-1" target="WEN4GhjOL043aAa4Vbo3-15" edge="1">
          <mxGeometry relative="1" as="geometry" />
        </mxCell>
        <mxCell id="2pHAMFMVJt9wwg3rpD-7-7" style="edgeStyle=orthogonalEdgeStyle;rounded=0;orthogonalLoop=1;jettySize=auto;html=1;exitX=0.5;exitY=1;exitDx=0;exitDy=0;entryX=0;entryY=0.5;entryDx=0;entryDy=0;" parent="1" source="2pHAMFMVJt9wwg3rpD-7-1" target="2pHAMFMVJt9wwg3rpD-7-2" edge="1">
          <mxGeometry relative="1" as="geometry" />
        </mxCell>
        <mxCell id="2pHAMFMVJt9wwg3rpD-7-8" style="edgeStyle=orthogonalEdgeStyle;rounded=0;orthogonalLoop=1;jettySize=auto;html=1;entryX=0.5;entryY=0;entryDx=0;entryDy=0;" parent="1" source="2pHAMFMVJt9wwg3rpD-7-1" target="2pHAMFMVJt9wwg3rpD-7-3" edge="1">
          <mxGeometry relative="1" as="geometry" />
        </mxCell>
        <mxCell id="2pHAMFMVJt9wwg3rpD-7-1" value="Class NumericFormatType&lt;br&gt;override" style="rounded=1;whiteSpace=wrap;html=1;" parent="1" vertex="1">
          <mxGeometry x="215" y="2200" width="150" height="60" as="geometry" />
        </mxCell>
        <mxCell id="2pHAMFMVJt9wwg3rpD-7-2" value="Class Integer override" style="rounded=1;whiteSpace=wrap;html=1;" parent="1" vertex="1">
          <mxGeometry x="350" y="2420" width="120" height="60" as="geometry" />
        </mxCell>
        <mxCell id="2pHAMFMVJt9wwg3rpD-7-3" value="Class Float override" style="rounded=1;whiteSpace=wrap;html=1;" parent="1" vertex="1">
          <mxGeometry x="230" y="2530" width="120" height="60" as="geometry" />
        </mxCell>
        <mxCell id="2pHAMFMVJt9wwg3rpD-7-10" style="edgeStyle=orthogonalEdgeStyle;rounded=0;orthogonalLoop=1;jettySize=auto;html=1;entryX=0.5;entryY=0;entryDx=0;entryDy=0;" parent="1" source="2pHAMFMVJt9wwg3rpD-7-9" target="2pHAMFMVJt9wwg3rpD-7-1" edge="1">
          <mxGeometry relative="1" as="geometry" />
        </mxCell>
        <mxCell id="2pHAMFMVJt9wwg3rpD-7-12" style="edgeStyle=orthogonalEdgeStyle;rounded=0;orthogonalLoop=1;jettySize=auto;html=1;" parent="1" source="2pHAMFMVJt9wwg3rpD-7-9" target="2pHAMFMVJt9wwg3rpD-7-11" edge="1">
          <mxGeometry relative="1" as="geometry" />
        </mxCell>
        <mxCell id="2pHAMFMVJt9wwg3rpD-7-9" value="class FormatType&lt;br&gt;abstract format()" style="rounded=1;whiteSpace=wrap;html=1;" parent="1" vertex="1">
          <mxGeometry x="480" y="1990" width="120" height="60" as="geometry" />
        </mxCell>
        <mxCell id="2pHAMFMVJt9wwg3rpD-7-18" style="edgeStyle=orthogonalEdgeStyle;rounded=0;orthogonalLoop=1;jettySize=auto;html=1;entryX=0;entryY=0.5;entryDx=0;entryDy=0;" parent="1" source="2pHAMFMVJt9wwg3rpD-7-11" target="2pHAMFMVJt9wwg3rpD-7-13" edge="1">
          <mxGeometry relative="1" as="geometry" />
        </mxCell>
        <mxCell id="2pHAMFMVJt9wwg3rpD-7-19" style="edgeStyle=orthogonalEdgeStyle;rounded=0;orthogonalLoop=1;jettySize=auto;html=1;entryX=1;entryY=0.5;entryDx=0;entryDy=0;" parent="1" source="2pHAMFMVJt9wwg3rpD-7-11" target="2pHAMFMVJt9wwg3rpD-7-14" edge="1">
          <mxGeometry relative="1" as="geometry" />
        </mxCell>
        <mxCell id="2pHAMFMVJt9wwg3rpD-7-20" style="edgeStyle=orthogonalEdgeStyle;rounded=0;orthogonalLoop=1;jettySize=auto;html=1;exitX=0.5;exitY=1;exitDx=0;exitDy=0;entryX=0;entryY=0.5;entryDx=0;entryDy=0;" parent="1" source="2pHAMFMVJt9wwg3rpD-7-11" target="2pHAMFMVJt9wwg3rpD-7-16" edge="1">
          <mxGeometry relative="1" as="geometry" />
        </mxCell>
        <mxCell id="2pHAMFMVJt9wwg3rpD-7-21" style="edgeStyle=orthogonalEdgeStyle;rounded=0;orthogonalLoop=1;jettySize=auto;html=1;entryX=1;entryY=0.5;entryDx=0;entryDy=0;" parent="1" source="2pHAMFMVJt9wwg3rpD-7-11" target="2pHAMFMVJt9wwg3rpD-7-15" edge="1">
          <mxGeometry relative="1" as="geometry" />
        </mxCell>
        <mxCell id="2pHAMFMVJt9wwg3rpD-7-22" style="edgeStyle=orthogonalEdgeStyle;rounded=0;orthogonalLoop=1;jettySize=auto;html=1;" parent="1" source="2pHAMFMVJt9wwg3rpD-7-11" target="2pHAMFMVJt9wwg3rpD-7-17" edge="1">
          <mxGeometry relative="1" as="geometry" />
        </mxCell>
        <mxCell id="2pHAMFMVJt9wwg3rpD-7-11" value="Class StringFormatType override" style="rounded=1;whiteSpace=wrap;html=1;" parent="1" vertex="1">
          <mxGeometry x="710" y="2190" width="180" height="60" as="geometry" />
        </mxCell>
        <mxCell id="2pHAMFMVJt9wwg3rpD-7-13" value="Class PureString override" style="rounded=1;whiteSpace=wrap;html=1;" parent="1" vertex="1">
          <mxGeometry x="890" y="2310" width="150" height="60" as="geometry" />
        </mxCell>
        <mxCell id="2pHAMFMVJt9wwg3rpD-7-14" value="Class PadLeftString override" style="rounded=1;whiteSpace=wrap;html=1;" parent="1" vertex="1">
          <mxGeometry x="555" y="2310" width="155" height="60" as="geometry" />
        </mxCell>
        <mxCell id="2pHAMFMVJt9wwg3rpD-7-15" value="Class PadRightString override" style="rounded=1;whiteSpace=wrap;html=1;" parent="1" vertex="1">
          <mxGeometry x="555" y="2410" width="165" height="60" as="geometry" />
        </mxCell>
        <mxCell id="2pHAMFMVJt9wwg3rpD-7-16" value="Class StrippedString override" style="rounded=1;whiteSpace=wrap;html=1;" parent="1" vertex="1">
          <mxGeometry x="885" y="2410" width="165" height="60" as="geometry" />
        </mxCell>
        <mxCell id="2pHAMFMVJt9wwg3rpD-7-17" value="Class MaxOneSpaceString override" style="rounded=1;whiteSpace=wrap;html=1;" parent="1" vertex="1">
          <mxGeometry x="702.5" y="2500" width="195" height="60" as="geometry" />
        </mxCell>
        <mxCell id="2pHAMFMVJt9wwg3rpD-7-25" style="edgeStyle=orthogonalEdgeStyle;rounded=0;orthogonalLoop=1;jettySize=auto;html=1;entryX=0.5;entryY=0;entryDx=0;entryDy=0;" parent="1" source="2pHAMFMVJt9wwg3rpD-7-24" target="J_76UupeG6wCFxkrGrsA-10" edge="1">
          <mxGeometry relative="1" as="geometry" />
        </mxCell>
        <mxCell id="2pHAMFMVJt9wwg3rpD-7-27" style="edgeStyle=orthogonalEdgeStyle;rounded=0;orthogonalLoop=1;jettySize=auto;html=1;entryX=0.5;entryY=0;entryDx=0;entryDy=0;" parent="1" source="2pHAMFMVJt9wwg3rpD-7-24" target="2pHAMFMVJt9wwg3rpD-7-26" edge="1">
          <mxGeometry relative="1" as="geometry" />
        </mxCell>
        <mxCell id="2pHAMFMVJt9wwg3rpD-7-24" value="Class Operator&lt;br&gt;" style="rounded=1;whiteSpace=wrap;html=1;" parent="1" vertex="1">
          <mxGeometry x="430" y="1420" width="120" height="60" as="geometry" />
        </mxCell>
        <mxCell id="2pHAMFMVJt9wwg3rpD-7-28" style="edgeStyle=orthogonalEdgeStyle;rounded=0;orthogonalLoop=1;jettySize=auto;html=1;entryX=0.5;entryY=0;entryDx=0;entryDy=0;" parent="1" source="2pHAMFMVJt9wwg3rpD-7-26" target="I5R2w2ZqIjQvtkFh19IB-7" edge="1">
          <mxGeometry relative="1" as="geometry" />
        </mxCell>
        <mxCell id="2pHAMFMVJt9wwg3rpD-7-26" value="Class UnaryOperator override" style="rounded=1;whiteSpace=wrap;html=1;" parent="1" vertex="1">
          <mxGeometry x="150" y="1530" width="180" height="60" as="geometry" />
        </mxCell>
      </root>
    </mxGraphModel>
  </diagram>
  <diagram id="slJyZLaG3actFjNdHa1Z" name="Page-2">
    <mxGraphModel dx="1320" dy="779" grid="1" gridSize="10" guides="1" tooltips="1" connect="1" arrows="1" fold="1" page="1" pageScale="1" pageWidth="850" pageHeight="1100" math="0" shadow="0">
      <root>
        <mxCell id="0" />
        <mxCell id="1" parent="0" />
      </root>
    </mxGraphModel>
  </diagram>
</mxfile>
